# 3ds Max Wavefront OBJ Exporter v0.97b - (c)2007 guruware
# File Created: 02.08.2024 03:25:38

mtllib hamam duvar.mtl

#
# object 
#

v  511.1250 0.0000 -2543.9661
v  436.5562 0.0000 -2469.3972
v  436.5562 500.0000 -2469.3972
v  511.1250 500.0000 -2543.9661
v  166.2892 0.0000 -2469.3972
v  166.2892 500.0000 -2469.3972
v  166.2892 0.0000 -2973.6545
v  166.2892 500.0000 -2973.6545
v  670.5467 0.0000 -2973.6545
v  670.5467 500.0000 -2973.6545
v  670.5467 0.0000 -2703.3877
v  670.5467 500.0000 -2703.3877
v  595.9778 0.0000 -2628.8188
v  595.9778 500.0000 -2628.8188
v  631.3332 0.0000 -2593.4634
v  631.3332 500.0000 -2593.4634
v  681.5313 327.1514 -2643.6616
v  720.5467 500.0000 -2682.6770
v  670.3484 327.1514 -2632.4788
v  720.5467 0.0000 -2682.6770
v  720.5467 0.0000 -3023.6545
v  720.5467 500.0000 -3023.6545
v  116.2892 0.0000 -3023.6545
v  116.2892 500.0000 -3023.6545
v  116.2892 0.0000 -2419.3972
v  116.2892 500.0000 -2419.3972
v  457.2668 0.0000 -2419.3972
v  457.2668 500.0000 -2419.3972
v  546.4803 0.0000 -2508.6106
v  546.4803 500.0000 -2508.6106
v  507.4649 327.1514 -2469.5952
v  496.2820 327.1514 -2458.4124
v  493.8747 327.1514 -2464.0037
v  495.7461 327.1514 -2458.8621
v  494.3571 327.1514 -2461.2678
v  477.3727 276.9014 -2439.5029
v  475.0238 276.9014 -2441.4741
v  477.3727 87.1324 -2439.5029
v  475.0238 87.1324 -2441.4741
v  466.8237 87.1324 -2464.0037
v  468.9374 87.1324 -2452.0159
v  519.3986 276.9014 -2494.3579
v  519.3986 87.1324 -2494.3579
v  526.3742 87.1324 -2488.5044
v  526.3742 276.9014 -2488.5044
v  466.8237 276.9014 -2464.0037
v  468.9374 276.9014 -2452.0159
v  507.9599 276.9014 -2498.5210
v  495.7872 276.9014 -2498.5210
v  495.7872 87.1324 -2498.5210
v  507.9599 87.1324 -2498.5210
v  475.0238 276.9014 -2486.5332
v  468.9374 276.9014 -2475.9915
v  468.9374 87.1324 -2475.9915
v  475.0238 87.1324 -2486.5332
v  484.3486 87.1324 -2494.3579
v  484.3486 276.9014 -2494.3579
v  494.3571 327.1514 -2466.7395
v  495.7461 327.1514 -2469.1453
v  497.8741 327.1514 -2470.9309
v  500.4846 327.1514 -2471.8811
v  503.2626 327.1514 -2471.8811
v  505.8730 327.1514 -2470.9309
v  679.9394 327.1514 -2644.9973
v  693.4649 276.9014 -2668.4243
v  700.4406 276.9014 -2662.5708
v  667.9410 327.1514 -2638.0701
v  669.8124 327.1514 -2632.9285
v  668.4234 327.1514 -2635.3342
v  651.4391 276.9014 -2613.5693
v  649.0901 276.9014 -2615.5405
v  649.0901 87.1324 -2615.5405
v  651.4391 87.1324 -2613.5693
v  640.8900 87.1324 -2638.0701
v  643.0038 87.1324 -2626.0823
v  693.4649 87.1324 -2668.4243
v  700.4406 87.1324 -2662.5708
v  640.8900 276.9014 -2638.0701
v  643.0038 276.9014 -2626.0823
v  682.0262 276.9014 -2672.5874
v  669.8536 276.9014 -2672.5874
v  669.8536 87.1324 -2672.5874
v  682.0262 87.1324 -2672.5874
v  643.0038 276.9014 -2650.0579
v  643.0038 87.1324 -2650.0579
v  649.0901 87.1324 -2660.5996
v  649.0901 276.9014 -2660.5996
v  658.4150 276.9014 -2668.4241
v  658.4150 87.1324 -2668.4241
v  668.4234 327.1514 -2640.8059
v  669.8124 327.1514 -2643.2117
v  671.9405 327.1514 -2644.9973
v  674.5509 327.1514 -2645.9475
v  677.3289 327.1514 -2645.9475
# 94 vertices

vn 0.0000 -0.5774 -0.8165
vn -0.2275 -0.8042 -0.5491
vn -0.2275 0.8042 -0.5491
vn 0.0000 0.5774 -0.8165
vn 0.3015 -0.9045 -0.3015
vn 0.3015 0.9045 -0.3015
vn 0.3015 -0.9045 0.3015
vn 0.3015 0.9045 0.3015
vn -0.3015 -0.9045 0.3015
vn -0.3015 0.9045 0.3015
vn -0.5491 -0.8042 -0.2274
vn -0.5491 0.8042 -0.2274
vn -0.8165 -0.5774 0.0001
vn -0.8165 0.5774 0.0001
vn -0.0000 -0.5774 0.8165
vn -0.0000 0.5774 0.8165
vn 0.4068 -0.4396 0.8008
vn 0.7173 0.6303 0.2971
vn 0.7819 -0.4816 0.3957
vn 0.7173 -0.6303 0.2971
vn 0.5774 -0.5774 -0.5774
vn 0.5774 0.5774 -0.5774
vn -0.5774 -0.5774 -0.5774
vn -0.5774 0.5774 -0.5774
vn -0.5774 -0.5774 0.5774
vn -0.5774 0.5774 0.5774
vn 0.2971 -0.6303 0.7173
vn 0.2971 0.6303 0.7173
vn 0.8165 -0.5774 0.0000
vn 0.8165 0.5774 0.0000
vn 0.5524 -0.8336 -0.0000
vn 0.4232 -0.8336 -0.3551
vn 0.5191 -0.8336 -0.1889
vn 0.9844 -0.1654 0.0598
vn 0.7440 -0.2382 -0.6243
vn 0.8493 0.3243 0.4164
vn 0.5687 0.6700 -0.4772
vn 0.7423 0.6701 -0.0000
vn 0.6975 0.6701 -0.2539
vn -0.4856 -0.2382 0.8411
vn -0.3712 0.6700 0.6429
vn 0.4376 0.2795 0.8546
vn 0.1403 -0.1460 0.9793
vn 0.9712 -0.2383 -0.0000
vn 0.9126 -0.2383 -0.3322
vn -0.1686 -0.2382 0.9565
vn 0.1686 -0.2382 0.9565
vn 0.1289 0.6700 0.7311
vn -0.1289 0.6700 0.7311
vn 0.7440 -0.2383 0.6243
vn 0.9126 -0.2383 0.3322
vn 0.6975 0.6701 0.2539
vn 0.5686 0.6701 0.4771
vn 0.3712 0.6700 0.6429
vn 0.4856 -0.2382 0.8411
vn 0.5191 -0.8336 0.1889
vn 0.4232 -0.8336 0.3551
vn 0.2762 -0.8336 0.4784
vn 0.0959 -0.8336 0.5440
vn -0.0959 -0.8336 0.5440
vn -0.2762 -0.8336 0.4784
vn -0.4856 -0.2383 0.8411
vn 0.1404 -0.1460 0.9793
vn 0.7423 0.6701 0.0000
vn -0.3711 0.6701 0.6429
vn 0.4377 0.2795 0.8546
vn 0.9712 -0.2383 0.0000
vn 0.5687 0.6700 0.4772
vn 0.7440 -0.2382 0.6243
# 69 vertex normals

vt 0.0000 0.0000 0.0000
vt 0.0263 0.0000 0.0000
vt 0.0263 1.0000 0.0000
vt 0.0000 1.0000 0.0000
vt 0.0939 0.0000 0.0000
vt 0.0939 1.0000 0.0000
vt 0.2198 0.0000 0.0000
vt 0.2198 1.0000 0.0000
vt 0.3458 0.0000 0.0000
vt 0.3458 1.0000 0.0000
vt 0.4133 0.0000 0.0000
vt 0.4133 1.0000 0.0000
vt 0.4397 0.0000 0.0000
vt 0.4397 1.0000 0.0000
vt 0.4522 0.0000 0.0000
vt 0.4522 1.0000 0.0000
vt 0.4699 0.6543 0.0000
vt 0.4837 1.0000 0.0000
vt 0.4660 0.6543 0.0000
vt 0.4837 0.0000 0.0000
vt 0.5689 0.0000 0.0000
vt 0.5689 1.0000 0.0000
vt 0.7198 0.0000 0.0000
vt 0.7198 1.0000 0.0000
vt 0.8708 0.0000 0.0000
vt 0.8708 1.0000 0.0000
vt 0.9560 0.0000 0.0000
vt 0.9560 1.0000 0.0000
vt 0.9875 0.0000 0.0000
vt 1.0000 0.0000 0.0000
vt 1.0000 1.0000 0.0000
vt 0.9875 1.0000 0.0000
vt 0.9173 0.4700 0.0000
vt 1.0000 0.4357 0.0000
vt 0.8524 0.2881 0.0000
vt 0.7938 0.3466 0.0000
vt 0.9737 0.6543 0.0000
vt 0.9698 0.6543 0.0000
vt 0.3289 0.0000 1.0000
vt 0.6166 0.0000 1.0000
vt 0.5922 0.0000 1.0000
vt 0.4670 0.0000 1.0000
vt 0.4224 0.0000 1.0000
vt 0.3611 0.0000 1.0000
vt 0.3751 0.0000 1.0000
vt 0.3751 1.0000 1.0000
vt 0.3611 1.0000 1.0000
vt 0.2716 1.0000 1.0000
vt 0.3395 1.0000 1.0000
vt 0.3899 1.0000 1.0000
vt 0.3966 1.0000 1.0000
vt 0.9167 0.0000 1.0000
vt 0.9167 1.0000 1.0000
vt 0.8751 1.0000 1.0000
vt 0.8751 0.0000 1.0000
vt 0.3056 1.0000 1.0000
vt 0.2500 1.0000 1.0000
vt 0.2500 0.0000 1.0000
vt 0.3056 0.0000 1.0000
vt -0.0278 0.0000 1.0000
vt 0.0278 0.0000 1.0000
vt 0.0278 1.0000 1.0000
vt -0.0278 1.0000 1.0000
vt 0.1389 0.0000 1.0000
vt 0.1944 0.0000 1.0000
vt 0.1944 1.0000 1.0000
vt 0.1389 1.0000 1.0000
vt 0.0833 1.0000 1.0000
vt 0.0833 0.0000 1.0000
vt 0.0278 -0.0000 1.0000
vt 0.1944 -0.0000 1.0000
vt 0.2929 0.0000 1.0000
vt 0.2373 0.0000 1.0000
vt 0.1818 0.0000 1.0000
vt 0.1262 0.0000 1.0000
vt 0.0707 0.0000 1.0000
vt 0.0151 0.0000 1.0000
vt -0.0197 0.0000 0.8794
vt -0.0259 0.0000 0.9725
vt 0.9722 0.0000 1.0000
vt 0.9722 1.0000 1.0000
vt 0.3484 0.0000 1.0000
vt 0.0333 0.0000 0.7098
vt -0.0076 0.0000 0.8407
vt 0.0833 -0.0000 1.0000
vt 0.2500 -0.0000 1.0000
vt 0.4593 0.1743 0.0000
vt 0.4593 0.5538 0.0000
vt 0.4766 0.1743 0.0000
vt 0.4766 0.5538 0.0000
vt 0.7119 0.1476 0.0000
vt 0.5643 0.0000 0.0000
vt 0.5300 0.0827 0.0000
vt 0.6534 0.2062 0.0000
vt 0.0827 0.0827 0.0000
vt 0.0827 0.9173 0.0000
vt 0.9173 0.9173 0.0000
vt 0.9631 0.1743 0.0000
vt 0.9631 0.5538 0.0000
vt 0.9804 0.1743 0.0000
vt 0.9804 0.5538 0.0000
vt 0.0295 0.0000 1.0000
vt 0.1021 0.0000 1.0000
vt -0.0010 0.0000 1.0000
vt -0.0384 0.0000 1.0000
vt 0.0799 0.0000 1.0000
vt -0.0077 1.0000 1.0000
vt -0.0010 1.0000 1.0000
vt 0.0494 1.0000 1.0000
vt 0.1173 1.0000 1.0000
# 110 texture coords

o 
g 
usemtl wire_154185229
s 1
f 1/1/1 2/2/2 3/3/3 4/4/4 
s 4
f 2/2/2 5/5/5 6/6/6 3/3/3 
s 2
f 5/5/5 7/7/7 8/8/8 6/6/6 
s 4
f 7/7/7 9/9/9 10/10/10 8/8/8 
s 2
f 11/11/11 12/12/12 10/10/10 9/9/9 
s 4
f 13/13/13 14/14/14 12/12/12 11/11/11 
s 2
f 13/13/13 15/15/15 16/16/16 14/14/14 
s 4
f 17/17/17 18/18/18 16/16/16 19/19/19 
s 2
f 20/20/20 21/21/21 22/22/22 18/18/18 
s 4
f 21/21/21 23/23/23 24/24/24 22/22/22 
s 2
f 23/23/23 25/25/25 26/26/26 24/24/24 
s 4
f 25/25/25 27/27/27 28/28/28 26/26/26 
f 29/29/29 1/30/1 4/31/4 30/32/30 
s 16
f 11/33/11 20/34/20 15/35/15 13/36/13 
f 12/33/12 14/36/14 16/35/16 18/34/18 
s 2
f 31/37/17 30/32/30 28/28/28 32/38/19 
s 1
f 33/39/31 32/40/19 34/41/32 35/42/33 
s off
f 36/43/34 37/44/35 34/44/32 32/45/19 
s 4
f 38/46/36 39/47/37 37/44/35 36/45/34 
s 1
f 40/48/38 41/49/39 39/50/37 38/51/36 
s 4
f 42/52/40 43/53/41 44/54/42 45/55/43 
f 41/56/39 40/57/38 46/58/44 47/59/45 
f 39/47/37 41/56/39 47/59/45 37/44/35 
f 48/60/46 49/61/47 50/62/48 51/63/49 
f 52/64/50 53/65/51 54/66/52 55/67/53 
f 52/64/50 55/67/53 56/68/54 57/69/55 
f 56/68/54 50/62/48 49/70/47 57/69/55 
f 53/71/51 46/58/44 40/57/38 54/66/52 
s off
f 47/59/45 46/58/44 33/72/31 35/59/33 
f 33/58/31 46/58/44 53/65/51 58/73/56 
f 53/65/51 52/64/50 59/74/57 58/65/56 
f 60/75/58 59/64/57 52/64/50 57/69/55 
f 57/69/55 49/61/47 61/76/59 60/69/58 
f 48/60/46 62/77/60 61/61/59 49/61/47 
f 48/60/46 42/78/40 63/79/61 62/60/60 
s 4
f 43/53/41 42/52/40 48/80/46 51/81/49 
s off
f 34/44/32 37/44/35 47/59/45 35/82/33 
f 63/78/61 42/78/40 45/83/43 31/84/17 
f 64/78/61 65/78/62 66/83/63 17/84/17 
s 1
f 67/39/31 19/40/19 68/41/32 69/42/33 
s off
f 70/43/34 71/44/35 68/44/32 19/45/19 
s 2
f 72/47/37 71/44/35 70/45/34 73/46/36 
s 1
f 74/48/64 75/49/39 72/50/37 73/51/36 
s 2
f 65/52/62 76/53/65 77/54/66 66/55/63 
f 74/57/64 78/58/67 79/59/45 75/56/39 
f 75/56/39 79/59/45 71/44/35 72/47/37 
f 80/60/46 81/61/47 82/62/48 83/63/49 
f 84/65/51 85/66/52 86/67/68 87/64/69 
f 88/85/55 87/64/69 86/67/68 89/68/54 
f 89/68/54 82/62/48 81/61/47 88/69/55 
f 84/65/51 78/86/67 74/57/64 85/66/52 
s off
f 69/59/33 79/59/45 78/58/67 67/72/31 
f 78/58/67 84/65/51 90/73/56 67/58/31 
f 84/65/51 87/64/69 91/74/57 90/65/56 
f 88/69/55 92/75/58 91/64/57 87/64/69 
f 88/69/55 81/61/47 93/76/59 92/69/58 
f 80/60/46 94/77/60 93/61/59 81/61/47 
f 80/60/46 65/78/62 64/79/61 94/60/60 
s 2
f 76/53/65 65/52/62 80/80/46 83/81/49 
s off
f 68/44/32 71/44/35 79/59/45 69/82/33 
s 4
f 73/87/36 70/88/34 16/16/16 15/15/15 
f 19/19/19 16/16/16 70/88/34 
f 20/20/20 77/89/66 73/87/36 15/15/15 
f 18/18/18 66/90/63 77/89/66 20/20/20 
f 18/18/18 17/17/17 66/90/63 
s 16
f 29/91/29 27/92/27 2/93/2 1/94/1 
f 25/1/25 5/95/5 2/93/2 27/92/27 
f 23/4/23 7/96/7 5/95/5 25/1/25 
f 21/31/21 9/97/9 7/96/7 23/4/23 
f 20/34/20 11/33/11 9/97/9 21/31/21 
f 3/93/3 28/92/28 30/91/30 4/94/4 
f 3/93/3 6/95/6 26/1/26 28/92/28 
f 6/95/6 8/96/8 24/4/24 26/1/26 
f 8/96/8 10/97/10 22/31/22 24/4/24 
f 10/97/10 12/33/12 18/34/18 22/31/22 
s 2
f 38/98/36 36/99/34 28/28/28 27/27/27 
f 32/38/19 28/28/28 36/99/34 
f 29/29/29 44/100/42 38/98/36 27/27/27 
f 30/32/30 45/101/43 44/100/42 29/29/29 
f 30/32/30 31/37/17 45/101/43 
s 1
f 32/40/19 62/60/60 63/102/61 31/103/17 
f 32/40/19 60/104/58 61/105/59 62/60/60 
f 32/40/19 58/65/56 59/106/57 60/104/58 
f 32/40/19 33/39/31 58/65/56 
f 43/63/41 51/63/49 38/51/36 44/107/42 
f 50/108/48 56/109/54 38/51/36 51/63/49 
f 55/110/53 54/66/52 38/51/36 56/109/54 
f 40/48/38 38/51/36 54/66/52 
f 19/40/19 94/60/60 64/102/61 17/103/17 
f 19/40/19 92/104/58 93/105/59 94/60/60 
f 19/40/19 90/65/56 91/106/57 92/104/58 
f 19/40/19 67/39/31 90/65/56 
f 76/63/65 83/63/49 73/51/36 77/107/66 
f 82/108/48 89/109/54 73/51/36 83/63/49 
f 86/110/68 85/66/52 73/51/36 89/109/54 
f 74/48/64 73/51/36 85/66/52 
# 88 polygons - 8 triangles

#
# object Line001
#

v  546.4803 280.0001 -2508.6106
v  560.7649 280.0001 -2522.8950
v  579.5261 327.1514 -2541.6563
v  598.2874 327.1514 -2560.4177
v  617.0486 280.0001 -2579.1790
v  631.3332 280.0001 -2593.4634
v  631.3332 500.0001 -2593.4634
v  546.4803 500.0001 -2508.6106
v  595.9778 280.0001 -2628.8188
v  595.9778 500.0001 -2628.8188
v  581.6933 280.0001 -2614.5344
v  562.9321 327.1514 -2595.7732
v  544.1708 327.1514 -2577.0117
v  525.4095 280.0001 -2558.2505
v  511.1250 280.0001 -2543.9661
v  511.1250 500.0001 -2543.9661
# 16 vertices

vn -0.0001 -0.5774 0.8165
vn 0.7138 -0.6846 0.1477
vn -0.1476 -0.6846 -0.7138
vn -0.7138 -0.6846 -0.1477
vn 0.1477 -0.6846 0.7138
vn 0.8165 -0.5774 0.0000
vn 0.8165 0.5774 -0.0001
vn -0.0001 0.5774 0.8165
vn 0.0000 -0.5774 -0.8165
vn 0.0000 0.5774 -0.8165
vn -0.7138 -0.6846 -0.1478
vn 0.1476 -0.6846 0.7138
vn 0.7138 -0.6846 0.1478
vn -0.1477 -0.6846 -0.7138
vn -0.8165 -0.5773 -0.0000
vn -0.8165 0.5773 -0.0000
# 16 vertex normals

o Line001
g Line001
usemtl wire_138008110
s 1
f 95//70 96//71 97//72 98//73 99//74 100//75 101//76 102//77 
s 4
f 100//75 103//78 104//79 101//76 
s 2
f 103//78 105//80 106//81 107//82 108//83 109//84 110//85 104//79 
s 4
f 109//84 95//70 102//77 110//85 
s 16
f 107//82 106//81 98//73 97//72 
f 110//85 102//77 101//76 104//79 
f 105//80 103//78 100//75 99//74 
f 106//81 105//80 99//74 98//73 
f 96//71 95//70 109//84 108//83 
f 97//72 96//71 108//83 107//82 
# 10 polygons

